<mxfile host="Electron" agent="Mozilla/5.0 (Windows NT 10.0; Win64; x64) AppleWebKit/537.36 (KHTML, like Gecko) draw.io/26.0.9 Chrome/128.0.6613.186 Electron/32.2.5 Safari/537.36" version="26.0.9">
  <diagram name="QuickBase-Workflow" id="oIc5JfqvKPGcpv6cmu93">
    <mxGraphModel dx="2369" dy="1042" grid="0" gridSize="10" guides="1" tooltips="1" connect="1" arrows="1" fold="1" page="0" pageScale="1" pageWidth="850" pageHeight="1100" math="0" shadow="0">
      <root>
        <mxCell id="0" />
        <mxCell id="1" parent="0" />
        <mxCell id="yhmqaKBHZp-EdjpaFLnD-5" value="" style="edgeStyle=none;curved=1;rounded=0;orthogonalLoop=1;jettySize=auto;html=1;fontSize=12;startSize=8;endSize=8;" parent="1" edge="1">
          <mxGeometry relative="1" as="geometry">
            <mxPoint x="47.999999999999545" y="311.0000000000002" as="sourcePoint" />
            <mxPoint x="197.5" y="311" as="targetPoint" />
          </mxGeometry>
        </mxCell>
        <mxCell id="yhmqaKBHZp-EdjpaFLnD-7" value="" style="edgeStyle=none;curved=1;rounded=0;orthogonalLoop=1;jettySize=auto;html=1;fontSize=12;startSize=8;endSize=8;" parent="1" edge="1">
          <mxGeometry relative="1" as="geometry">
            <mxPoint x="317.5" y="311" as="sourcePoint" />
            <mxPoint x="437.5" y="311" as="targetPoint" />
          </mxGeometry>
        </mxCell>
        <mxCell id="yhmqaKBHZp-EdjpaFLnD-9" value="" style="edgeStyle=none;curved=1;rounded=0;orthogonalLoop=1;jettySize=auto;html=1;fontSize=12;startSize=8;endSize=8;" parent="1" edge="1">
          <mxGeometry relative="1" as="geometry">
            <mxPoint x="557.5" y="311" as="sourcePoint" />
            <mxPoint x="677.5" y="311.0000000000002" as="targetPoint" />
          </mxGeometry>
        </mxCell>
        <mxCell id="yhmqaKBHZp-EdjpaFLnD-11" value="" style="edgeStyle=none;curved=1;rounded=0;orthogonalLoop=1;jettySize=auto;html=1;fontSize=12;startSize=8;endSize=8;" parent="1" target="yhmqaKBHZp-EdjpaFLnD-10" edge="1">
          <mxGeometry relative="1" as="geometry">
            <mxPoint x="737.3275862068967" y="341.0000000000002" as="sourcePoint" />
          </mxGeometry>
        </mxCell>
        <mxCell id="yhmqaKBHZp-EdjpaFLnD-32" value="" style="edgeStyle=none;curved=1;rounded=0;orthogonalLoop=1;jettySize=auto;html=1;fontSize=12;startSize=8;endSize=8;" parent="1" edge="1">
          <mxGeometry relative="1" as="geometry">
            <mxPoint x="797.5" y="311.0000000000002" as="sourcePoint" />
            <mxPoint x="917.5" y="311" as="targetPoint" />
          </mxGeometry>
        </mxCell>
        <mxCell id="yhmqaKBHZp-EdjpaFLnD-10" value="Setup&lt;span style=&quot;background-color: transparent; color: light-dark(rgb(0, 0, 0), rgb(255, 255, 255));&quot;&gt;&amp;nbsp;For Test Suite&lt;/span&gt;&lt;div&gt;&lt;div&gt;&lt;b&gt;(Logger)&lt;/b&gt;&lt;/div&gt;&lt;/div&gt;" style="whiteSpace=wrap;html=1;fillColor=#f8cecc;strokeColor=#b85450;rounded=1;" parent="1" vertex="1">
          <mxGeometry x="654" y="461" width="165" height="48" as="geometry" />
        </mxCell>
        <mxCell id="yhmqaKBHZp-EdjpaFLnD-12" value="Setup For Class&lt;div&gt;&lt;b&gt;(HttpClient)&lt;/b&gt;&lt;/div&gt;" style="whiteSpace=wrap;html=1;fillColor=#cdeb8b;strokeColor=#36393d;rounded=1;" parent="1" vertex="1">
          <mxGeometry x="836" y="566" width="229" height="49" as="geometry" />
        </mxCell>
        <mxCell id="yhmqaKBHZp-EdjpaFLnD-14" value="Setup&amp;nbsp;&lt;span style=&quot;background-color: transparent; color: light-dark(rgb(0, 0, 0), rgb(255, 255, 255));&quot;&gt;For UnitTest&lt;/span&gt;&lt;div&gt;&lt;div&gt;&lt;b&gt;(TestData)&lt;/b&gt;&lt;/div&gt;&lt;/div&gt;" style="whiteSpace=wrap;html=1;fillColor=#ffff88;strokeColor=#36393d;rounded=1;" parent="1" vertex="1">
          <mxGeometry x="1044" y="639" width="229" height="49" as="geometry" />
        </mxCell>
        <mxCell id="yhmqaKBHZp-EdjpaFLnD-15" value="unit Test" style="whiteSpace=wrap;html=1;fillColor=#ffe6cc;strokeColor=#d79b00;rounded=1;" parent="1" vertex="1">
          <mxGeometry x="1247" y="707" width="229" height="49" as="geometry" />
        </mxCell>
        <mxCell id="yhmqaKBHZp-EdjpaFLnD-16" value="Tear Down For UnitTest&lt;div&gt;&lt;b&gt;(Dispose TestData)&lt;/b&gt;&lt;/div&gt;" style="whiteSpace=wrap;html=1;fillColor=#ffff88;strokeColor=#36393d;rounded=1;" parent="1" vertex="1">
          <mxGeometry x="1058" y="785" width="229" height="49" as="geometry" />
        </mxCell>
        <mxCell id="yhmqaKBHZp-EdjpaFLnD-17" value="TearDown for Class&lt;div&gt;&lt;b&gt;(Dispose HttpClient)&lt;/b&gt;&lt;/div&gt;" style="whiteSpace=wrap;html=1;fillColor=#cdeb8b;strokeColor=#36393d;rounded=1;" parent="1" vertex="1">
          <mxGeometry x="855" y="875" width="229" height="49" as="geometry" />
        </mxCell>
        <mxCell id="yhmqaKBHZp-EdjpaFLnD-18" value="Tear Down test Suite&lt;div&gt;&lt;b&gt;(Dispose Logger)&lt;/b&gt;&lt;/div&gt;" style="whiteSpace=wrap;html=1;fillColor=#f8cecc;strokeColor=#b85450;rounded=1;" parent="1" vertex="1">
          <mxGeometry x="665" y="965" width="176" height="48" as="geometry" />
        </mxCell>
        <mxCell id="yhmqaKBHZp-EdjpaFLnD-19" value="" style="edgeStyle=elbowEdgeStyle;elbow=horizontal;endArrow=classic;html=1;curved=0;rounded=0;endSize=8;startSize=8;fontFamily=Helvetica;fontSize=12;fontColor=#008364;fontStyle=1;exitX=0.457;exitY=0.962;exitDx=0;exitDy=0;exitPerimeter=0;" parent="1" edge="1">
          <mxGeometry width="50" height="50" relative="1" as="geometry">
            <mxPoint x="819" y="483" as="sourcePoint" />
            <mxPoint x="951" y="565" as="targetPoint" />
            <Array as="points">
              <mxPoint x="951" y="523" />
            </Array>
          </mxGeometry>
        </mxCell>
        <mxCell id="yhmqaKBHZp-EdjpaFLnD-21" value="" style="edgeStyle=elbowEdgeStyle;elbow=horizontal;endArrow=classic;html=1;curved=0;rounded=0;endSize=8;startSize=8;fontFamily=Helvetica;fontSize=12;fontColor=#008364;fontStyle=1;exitX=0.457;exitY=0.962;exitDx=0;exitDy=0;exitPerimeter=0;entryX=0.5;entryY=0;entryDx=0;entryDy=0;" parent="1" target="yhmqaKBHZp-EdjpaFLnD-14" edge="1">
          <mxGeometry width="50" height="50" relative="1" as="geometry">
            <mxPoint x="1065" y="588" as="sourcePoint" />
            <mxPoint x="1166" y="654" as="targetPoint" />
            <Array as="points">
              <mxPoint x="1159" y="611" />
            </Array>
          </mxGeometry>
        </mxCell>
        <mxCell id="yhmqaKBHZp-EdjpaFLnD-22" value="" style="edgeStyle=elbowEdgeStyle;elbow=horizontal;endArrow=classic;html=1;curved=0;rounded=0;endSize=8;startSize=8;fontFamily=Helvetica;fontSize=12;fontColor=#008364;fontStyle=1;exitX=0.457;exitY=0.962;exitDx=0;exitDy=0;exitPerimeter=0;entryX=0.5;entryY=0;entryDx=0;entryDy=0;" parent="1" target="yhmqaKBHZp-EdjpaFLnD-15" edge="1">
          <mxGeometry width="50" height="50" relative="1" as="geometry">
            <mxPoint x="1276" y="680" as="sourcePoint" />
            <mxPoint x="1361" y="726" as="targetPoint" />
            <Array as="points">
              <mxPoint x="1361" y="703" />
            </Array>
          </mxGeometry>
        </mxCell>
        <mxCell id="yhmqaKBHZp-EdjpaFLnD-23" value="" style="edgeStyle=elbowEdgeStyle;elbow=horizontal;endArrow=classic;html=1;curved=0;rounded=0;endSize=8;startSize=8;fontFamily=Helvetica;fontSize=12;fontColor=#008364;fontStyle=1;exitX=0.5;exitY=1;exitDx=0;exitDy=0;entryX=1;entryY=0.5;entryDx=0;entryDy=0;" parent="1" source="yhmqaKBHZp-EdjpaFLnD-15" target="yhmqaKBHZp-EdjpaFLnD-16" edge="1">
          <mxGeometry width="50" height="50" relative="1" as="geometry">
            <mxPoint x="1364" y="819" as="sourcePoint" />
            <mxPoint x="1455" y="907" as="targetPoint" />
            <Array as="points">
              <mxPoint x="1361" y="798" />
            </Array>
          </mxGeometry>
        </mxCell>
        <mxCell id="yhmqaKBHZp-EdjpaFLnD-24" value="" style="edgeStyle=elbowEdgeStyle;elbow=horizontal;endArrow=classic;html=1;curved=0;rounded=0;endSize=8;startSize=8;fontFamily=Helvetica;fontSize=12;fontColor=#008364;fontStyle=1;exitX=0;exitY=0.5;exitDx=0;exitDy=0;entryX=0;entryY=0.5;entryDx=0;entryDy=0;" parent="1" source="yhmqaKBHZp-EdjpaFLnD-16" target="yhmqaKBHZp-EdjpaFLnD-14" edge="1">
          <mxGeometry width="50" height="50" relative="1" as="geometry">
            <mxPoint x="1026" y="758" as="sourcePoint" />
            <mxPoint x="964" y="846" as="targetPoint" />
            <Array as="points">
              <mxPoint x="988" y="799" />
            </Array>
          </mxGeometry>
        </mxCell>
        <mxCell id="yhmqaKBHZp-EdjpaFLnD-25" value="" style="edgeStyle=elbowEdgeStyle;elbow=horizontal;endArrow=classic;html=1;curved=0;rounded=0;endSize=8;startSize=8;fontFamily=Helvetica;fontSize=12;fontColor=#008364;fontStyle=1;exitX=0;exitY=0.5;exitDx=0;exitDy=0;entryX=0;entryY=0.5;entryDx=0;entryDy=0;" parent="1" source="yhmqaKBHZp-EdjpaFLnD-17" edge="1">
          <mxGeometry width="50" height="50" relative="1" as="geometry">
            <mxPoint x="863" y="821" as="sourcePoint" />
            <mxPoint x="837" y="592" as="targetPoint" />
            <Array as="points">
              <mxPoint x="777" y="751" />
            </Array>
          </mxGeometry>
        </mxCell>
        <mxCell id="yhmqaKBHZp-EdjpaFLnD-26" value="" style="edgeStyle=elbowEdgeStyle;elbow=horizontal;endArrow=classic;html=1;curved=0;rounded=0;endSize=8;startSize=8;fontFamily=Helvetica;fontSize=12;fontColor=#008364;fontStyle=1;exitX=0;exitY=0.5;exitDx=0;exitDy=0;entryX=0;entryY=0.5;entryDx=0;entryDy=0;" parent="1" source="yhmqaKBHZp-EdjpaFLnD-18" edge="1">
          <mxGeometry width="50" height="50" relative="1" as="geometry">
            <mxPoint x="684" y="906" as="sourcePoint" />
            <mxPoint x="655" y="484" as="targetPoint" />
            <Array as="points">
              <mxPoint x="608" y="744" />
            </Array>
          </mxGeometry>
        </mxCell>
        <mxCell id="yhmqaKBHZp-EdjpaFLnD-27" value="" style="edgeStyle=elbowEdgeStyle;elbow=horizontal;endArrow=classic;html=1;curved=0;rounded=0;endSize=8;startSize=8;fontFamily=Helvetica;fontSize=12;fontColor=#008364;fontStyle=1;exitX=0.5;exitY=1;exitDx=0;exitDy=0;entryX=1;entryY=0.5;entryDx=0;entryDy=0;" parent="1" source="yhmqaKBHZp-EdjpaFLnD-16" target="yhmqaKBHZp-EdjpaFLnD-17" edge="1">
          <mxGeometry width="50" height="50" relative="1" as="geometry">
            <mxPoint x="1182" y="931" as="sourcePoint" />
            <mxPoint x="1120" y="1019" as="targetPoint" />
            <Array as="points">
              <mxPoint x="1173" y="908" />
            </Array>
          </mxGeometry>
        </mxCell>
        <mxCell id="yhmqaKBHZp-EdjpaFLnD-28" value="" style="edgeStyle=elbowEdgeStyle;elbow=horizontal;endArrow=classic;html=1;curved=0;rounded=0;endSize=8;startSize=8;fontFamily=Helvetica;fontSize=12;fontColor=#008364;fontStyle=1;exitX=0.5;exitY=1;exitDx=0;exitDy=0;entryX=1;entryY=0.5;entryDx=0;entryDy=0;" parent="1" source="yhmqaKBHZp-EdjpaFLnD-17" target="yhmqaKBHZp-EdjpaFLnD-18" edge="1">
          <mxGeometry width="50" height="50" relative="1" as="geometry">
            <mxPoint x="981" y="1038" as="sourcePoint" />
            <mxPoint x="894" y="1121" as="targetPoint" />
            <Array as="points">
              <mxPoint x="964" y="961" />
              <mxPoint x="970" y="1015" />
            </Array>
          </mxGeometry>
        </mxCell>
        <mxCell id="yhmqaKBHZp-EdjpaFLnD-29" style="edgeStyle=none;curved=1;rounded=0;orthogonalLoop=1;jettySize=auto;html=1;entryX=0.5;entryY=0;entryDx=0;entryDy=0;fontSize=12;startSize=8;endSize=8;" parent="1" source="yhmqaKBHZp-EdjpaFLnD-15" target="yhmqaKBHZp-EdjpaFLnD-15" edge="1">
          <mxGeometry relative="1" as="geometry" />
        </mxCell>
        <mxCell id="yhmqaKBHZp-EdjpaFLnD-34" value="" style="edgeStyle=none;curved=1;rounded=0;orthogonalLoop=1;jettySize=auto;html=1;fontSize=12;startSize=8;endSize=8;" parent="1" edge="1">
          <mxGeometry relative="1" as="geometry">
            <mxPoint x="1037.5" y="311" as="sourcePoint" />
            <mxPoint x="1157.5" y="311" as="targetPoint" />
          </mxGeometry>
        </mxCell>
        <mxCell id="yhmqaKBHZp-EdjpaFLnD-36" value="" style="edgeStyle=none;curved=1;rounded=0;orthogonalLoop=1;jettySize=auto;html=1;fontSize=12;startSize=8;endSize=8;" parent="1" edge="1">
          <mxGeometry relative="1" as="geometry">
            <mxPoint x="1277.5" y="311" as="sourcePoint" />
            <mxPoint x="1397.5" y="311" as="targetPoint" />
          </mxGeometry>
        </mxCell>
        <mxCell id="yhmqaKBHZp-EdjpaFLnD-37" value="1" style="ellipse;whiteSpace=wrap;html=1;" parent="1" vertex="1">
          <mxGeometry x="-236" y="264" width="52" height="42" as="geometry" />
        </mxCell>
        <mxCell id="yhmqaKBHZp-EdjpaFLnD-38" value="2" style="ellipse;whiteSpace=wrap;html=1;" parent="1" vertex="1">
          <mxGeometry x="110" y="267" width="52" height="42" as="geometry" />
        </mxCell>
        <mxCell id="yhmqaKBHZp-EdjpaFLnD-39" value="3&lt;span style=&quot;color: rgba(0, 0, 0, 0); font-family: monospace; font-size: 0px; text-align: start; text-wrap: nowrap;&quot;&gt;%3CmxGraphModel%3E%3Croot%3E%3CmxCell%20id%3D%220%22%2F%3E%3CmxCell%20id%3D%221%22%20parent%3D%220%22%2F%3E%3CmxCell%20id%3D%222%22%20value%3D%222%22%20style%3D%22ellipse%3BwhiteSpace%3Dwrap%3Bhtml%3D1%3B%22%20vertex%3D%221%22%20parent%3D%221%22%3E%3CmxGeometry%20x%3D%22110%22%20y%3D%22267%22%20width%3D%2252%22%20height%3D%2242%22%20as%3D%22geometry%22%2F%3E%3C%2FmxCell%3E%3C%2Froot%3E%3C%2FmxGraphModel%3E&lt;/span&gt;" style="ellipse;whiteSpace=wrap;html=1;" parent="1" vertex="1">
          <mxGeometry x="352" y="267" width="52" height="42" as="geometry" />
        </mxCell>
        <mxCell id="yhmqaKBHZp-EdjpaFLnD-40" value="4" style="ellipse;whiteSpace=wrap;html=1;" parent="1" vertex="1">
          <mxGeometry x="596" y="269" width="52" height="42" as="geometry" />
        </mxCell>
        <mxCell id="yhmqaKBHZp-EdjpaFLnD-41" value="4.1" style="ellipse;whiteSpace=wrap;html=1;" parent="1" vertex="1">
          <mxGeometry x="742" y="406" width="52" height="42" as="geometry" />
        </mxCell>
        <mxCell id="yhmqaKBHZp-EdjpaFLnD-42" value="4.2" style="ellipse;whiteSpace=wrap;html=1;" parent="1" vertex="1">
          <mxGeometry x="955" y="499" width="52" height="42" as="geometry" />
        </mxCell>
        <mxCell id="yhmqaKBHZp-EdjpaFLnD-43" value="4.3" style="ellipse;whiteSpace=wrap;html=1;" parent="1" vertex="1">
          <mxGeometry x="1111" y="545" width="52" height="42" as="geometry" />
        </mxCell>
        <mxCell id="yhmqaKBHZp-EdjpaFLnD-44" value="4.4" style="ellipse;whiteSpace=wrap;html=1;" parent="1" vertex="1">
          <mxGeometry x="1313" y="634" width="52" height="42" as="geometry" />
        </mxCell>
        <mxCell id="yhmqaKBHZp-EdjpaFLnD-45" value="5" style="ellipse;whiteSpace=wrap;html=1;" parent="1" vertex="1">
          <mxGeometry x="845" y="254" width="52" height="42" as="geometry" />
        </mxCell>
        <mxCell id="yhmqaKBHZp-EdjpaFLnD-46" value="6" style="ellipse;whiteSpace=wrap;html=1;" parent="1" vertex="1">
          <mxGeometry x="1072" y="262" width="52" height="42" as="geometry" />
        </mxCell>
        <mxCell id="yhmqaKBHZp-EdjpaFLnD-47" value="7" style="ellipse;whiteSpace=wrap;html=1;" parent="1" vertex="1">
          <mxGeometry x="1313" y="262" width="52" height="42" as="geometry" />
        </mxCell>
        <mxCell id="yhmqaKBHZp-EdjpaFLnD-48" value="" style="edgeStyle=none;curved=1;rounded=0;orthogonalLoop=1;jettySize=auto;html=1;fontSize=12;startSize=8;endSize=8;" parent="1" edge="1">
          <mxGeometry relative="1" as="geometry">
            <mxPoint x="-281" y="311" as="sourcePoint" />
            <mxPoint x="-131" y="311" as="targetPoint" />
          </mxGeometry>
        </mxCell>
        <mxCell id="yhmqaKBHZp-EdjpaFLnD-49" value="" style="points=[];aspect=fixed;html=1;align=center;shadow=0;dashed=0;fillColor=#FF6A00;strokeColor=none;shape=mxgraph.alibaba_cloud.user;" parent="1" vertex="1">
          <mxGeometry x="-353" y="283" width="60" height="60" as="geometry" />
        </mxCell>
        <mxCell id="yhmqaKBHZp-EdjpaFLnD-50" value="User" style="text;html=1;align=center;verticalAlign=middle;resizable=0;points=[];autosize=1;strokeColor=none;fillColor=none;fontSize=16;" parent="1" vertex="1">
          <mxGeometry x="-344" y="353" width="52" height="31" as="geometry" />
        </mxCell>
        <mxCell id="yhmqaKBHZp-EdjpaFLnD-66" value="&lt;font style=&quot;font-size: 15px;&quot;&gt;&lt;b&gt;Sending Email- Report&lt;/b&gt;&lt;/font&gt;" style="verticalLabelPosition=bottom;html=1;verticalAlign=top;strokeWidth=1;align=center;outlineConnect=0;dashed=0;outlineConnect=0;shape=mxgraph.aws3d.email;aspect=fixed;strokeColor=#292929;" parent="1" vertex="1">
          <mxGeometry x="1163" y="238" width="97" height="128.59" as="geometry" />
        </mxCell>
        <mxCell id="yhmqaKBHZp-EdjpaFLnD-67" value="&lt;font style=&quot;font-size: 18px;&quot;&gt;&lt;b&gt;Report DashBoard&lt;/b&gt;&lt;/font&gt;" style="image;aspect=fixed;html=1;points=[];align=center;fontSize=12;image=img/lib/azure2/general/Dashboard2.svg;" parent="1" vertex="1">
          <mxGeometry x="1418" y="266.91" width="130.59" height="92.18" as="geometry" />
        </mxCell>
        <mxCell id="yhmqaKBHZp-EdjpaFLnD-68" value="&lt;font style=&quot;font-size: 15px;&quot;&gt;&lt;b&gt;Allura Report Generator&lt;/b&gt;&lt;/font&gt;" style="verticalLabelPosition=bottom;sketch=0;aspect=fixed;html=1;verticalAlign=top;strokeColor=none;align=center;outlineConnect=0;shape=mxgraph.citrix.reporting;" parent="1" vertex="1">
          <mxGeometry x="930" y="258.83000000000004" width="93" height="104.34" as="geometry" />
        </mxCell>
        <mxCell id="yhmqaKBHZp-EdjpaFLnD-69" value="&lt;font style=&quot;color: rgb(0, 0, 0); font-size: 17px;&quot;&gt;&lt;b style=&quot;&quot;&gt;Build Solution&lt;/b&gt;&lt;/font&gt;" style="image;aspect=fixed;perimeter=ellipsePerimeter;html=1;align=center;shadow=0;dashed=0;fontColor=#4277BB;labelBackgroundColor=default;fontSize=12;spacingTop=3;image=img/lib/ibm/devops/build_test.svg;" parent="1" vertex="1">
          <mxGeometry x="435" y="251" width="123" height="123" as="geometry" />
        </mxCell>
        <mxCell id="yhmqaKBHZp-EdjpaFLnD-72" value="&lt;b&gt;&lt;font style=&quot;font-size: 18px;&quot;&gt;Clean Solution&lt;/font&gt;&lt;/b&gt;" style="sketch=0;points=[[0,0,0],[0.25,0,0],[0.5,0,0],[0.75,0,0],[1,0,0],[0,1,0],[0.25,1,0],[0.5,1,0],[0.75,1,0],[1,1,0],[0,0.25,0],[0,0.5,0],[0,0.75,0],[1,0.25,0],[1,0.5,0],[1,0.75,0]];outlineConnect=0;fontColor=#232F3E;fillColor=#8C4FFF;strokeColor=#ffffff;dashed=0;verticalLabelPosition=bottom;verticalAlign=top;align=center;html=1;fontSize=12;fontStyle=0;aspect=fixed;shape=mxgraph.aws4.resourceIcon;resIcon=mxgraph.aws4.clean_rooms;" parent="1" vertex="1">
          <mxGeometry x="199" y="254" width="115" height="115" as="geometry" />
        </mxCell>
        <mxCell id="yhmqaKBHZp-EdjpaFLnD-73" value="&lt;font style=&quot;color: rgb(0, 0, 0); font-size: 17px;&quot;&gt;&lt;b style=&quot;&quot;&gt;Run Tests&lt;/b&gt;&lt;/font&gt;" style="image;aspect=fixed;perimeter=ellipsePerimeter;html=1;align=center;shadow=0;dashed=0;fontColor=#4277BB;labelBackgroundColor=default;fontSize=12;spacingTop=3;image=img/lib/ibm/devops/build_test.svg;" parent="1" vertex="1">
          <mxGeometry x="674.5" y="250" width="123" height="123" as="geometry" />
        </mxCell>
        <mxCell id="yhmqaKBHZp-EdjpaFLnD-75" value="&lt;b&gt;&lt;font style=&quot;font-size: 18px;&quot;&gt;Trigger Build Pipeline&lt;/font&gt;&lt;/b&gt;" style="sketch=0;outlineConnect=0;fontColor=#232F3E;gradientColor=none;fillColor=#7AA116;strokeColor=none;dashed=0;verticalLabelPosition=bottom;verticalAlign=top;align=center;html=1;fontSize=12;fontStyle=0;aspect=fixed;pointerEvents=1;shape=mxgraph.aws4.iot_analytics_pipeline;" parent="1" vertex="1">
          <mxGeometry x="-135" y="261.63" width="181" height="97.46" as="geometry" />
        </mxCell>
      </root>
    </mxGraphModel>
  </diagram>
</mxfile>
